<svg preserveAspectRatio="none" width="100%" height="100%" overflow="visible" style="display: block;" viewBox="0 0 373 109" fill="none" xmlns="http://www.w3.org/2000/svg">
<g id="Group 35">
<path id="Vector" d="M245.769 69.153C264.98 77.955 262.44 108.114 260.211 108.952L260.207 108.951C257.939 109.805 257.303 99.2964 236.378 93.514C214.906 87.5707 213.077 72.7437 213.121 67.5213C198.248 67.0929 184.352 66.0338 171.265 64.5337C187.463 77.3103 183.276 106.192 180.929 106.927C178.367 107.725 178.302 96.0607 155.508 88.3789C132.188 80.5142 130.993 64.0721 131.356 58.2563C96.7651 51.3496 68.209 41.9737 41.7341 34.6053C38.3017 33.7527 34.677 32.846 30.8671 31.877C23.5472 30.0206 16.898 28.4236 10.8048 27.0428H10.7924C6.52053 26.1915 2.95948 25.4124 0 24.7012L2.56679 12.7994C36.5681 18.0995 67.5746 25.9331 84.8097 24.1868C113.955 21.2284 112.276 1.38975 114.775 0.14897C117.26 -1.08211 135.061 5.23967 135.223 21.9965C135.321 31.8894 130.476 38.9543 124.084 42.8845C140.68 46.5709 158.653 49.8343 178.071 52.0206C177.952 45.6669 180.051 28.5871 204.785 21.2076C229.213 13.9154 229.72 1.56167 232.399 2.50993C235.046 3.42631 238.738 38.8045 216.385 49.5945C211.918 51.753 207.646 53.2087 203.652 54.168C213.017 54.6837 222.66 54.9333 232.627 54.8349C239.061 54.7725 245.035 54.4703 250.579 54.0086C250.567 48.8514 252.526 36.0443 271.284 30.4435C290.217 24.7996 290.604 15.2186 292.682 15.9533C294.437 16.5675 296.77 36.6876 286.58 47.7395C304.941 42.775 313.657 37.737 317.932 41.9335C325.434 49.3019 292.705 65.5513 241.861 67.5462C243.143 68.0204 244.444 68.5389 245.769 69.153Z" fill="var(--fill-0, #DF8D40)" fill-opacity="0.25"/>
<path id="Vector_2" d="M325.522 41.3467C323.901 45.8015 352.212 57.8886 369.372 26.8728C369.372 26.8728 337.754 7.84745 325.522 41.3467Z" fill="var(--fill-0, #DF8D40)" fill-opacity="0.5"/>
</g>
</svg>
