<svg preserveAspectRatio="none" width="100%" height="100%" overflow="visible" style="display: block;" viewBox="0 0 116.612 71.0003" fill="none" xmlns="http://www.w3.org/2000/svg">
<g id="Lilian-logo">
<path d="M35.6391 18.0887C38.1872 17.781 40.0049 15.4637 39.6982 12.9151C39.3889 10.3656 37.0728 8.54685 34.5244 8.85425C31.9761 9.16375 30.1593 11.4784 30.4656 14.0276C30.775 16.5794 33.0911 18.3973 35.6391 18.0887Z" fill="var(--fill-0, white)"/>
<path d="M61.5382 16.8065C64.1052 16.8065 66.1871 14.7257 66.1871 12.1576C66.1871 9.58947 64.1052 7.50697 61.5382 7.50697C58.9712 7.50697 56.8913 9.59038 56.8913 12.1576C56.8913 14.7248 58.9715 16.8065 61.5382 16.8065Z" fill="var(--fill-0, white)"/>
<path d="M86.0033 70.9897C86.4885 70.8075 87.041 64.258 82.8606 62.3465C82.5723 62.2131 82.2891 62.1005 82.0101 61.9976C93.0743 61.5643 100.197 58.0355 98.5641 56.4353C97.6339 55.5239 95.737 56.618 91.7414 57.6962C93.959 55.296 93.4514 50.9266 93.0695 50.7932C92.6172 50.6336 92.5329 52.7143 88.413 53.94C84.331 55.1563 83.9046 57.9376 83.9073 59.0576C82.7008 59.1579 81.4007 59.2235 80.0007 59.237C77.8318 59.2584 75.7334 59.2042 73.6954 59.0922C74.5645 58.8839 75.4941 58.5678 76.4662 58.099C81.3306 55.7557 80.5271 48.0727 79.9511 47.8737C79.3682 47.6678 79.2577 50.3506 73.9419 51.9342C68.5595 53.5368 68.1027 57.246 68.1286 58.6259C63.903 58.1511 59.992 57.4423 56.3804 56.6418C57.7713 55.7883 58.8258 54.254 58.8045 52.1056C58.7692 48.4665 54.8955 47.0936 54.3547 47.361C53.8109 47.6304 54.1763 51.9388 47.8339 52.5812C43.061 53.0639 33.4347 50.1772 23.7883 49.3429C24.5725 47.3279 25.708 43.0611 26.2587 39.2324C27.8447 28.236 26.015 20.8393 25.1627 14.5156C25.1627 14.5156 29.8114 8.69771 28.2332 3.57106C26.7366 -1.2819 20.4295 -1.029 18.1528 3.36182C15.7898 7.92004 16.2133 12.711 16.9885 17.5492C13.1072 20.9329 6.97855 25.7549 2.81651 32.4869C-2.83519 41.6319 0.984979 48.3024 5.81631 48.2533C10.7674 48.2046 11.0374 42.7802 10.7984 42.8031C10.5519 42.8296 9.71622 44.4809 7.538 44.5023C2.93809 44.5493 2.61518 37.9793 6.62705 31.8007C10.4704 25.8792 17.4826 20.3377 17.4826 20.3377C17.4826 20.3377 18.6232 26.2309 19.0003 29.8814C19.3611 33.3699 19.3846 39.5066 17.6885 48.7947C17.6771 48.8672 17.6629 48.9356 17.6488 49.0078C16.2109 49.0175 14.8452 49.1087 13.5782 49.3026C2.98053 50.9401 3.19781 56.7306 3.21466 58.2209C3.23332 60.1324 4.48193 63.8789 9.72073 63.8275C13.7612 63.7856 19.3536 60.0526 22.8554 51.6199C24.9117 51.7885 26.1062 52.0183 29.3783 52.693C30.0223 52.8474 30.7972 53.0166 31.7269 53.2015H31.7296C33.0555 53.5013 34.5024 53.8482 36.0953 54.2513C36.9244 54.4617 37.7132 54.6586 38.4601 54.8438C44.2214 56.444 50.4355 58.4801 57.963 59.9801C57.8839 61.2431 58.1439 64.8138 63.2187 66.5218C68.1788 68.19 68.193 70.7232 68.7506 70.5498C69.2613 70.3902 70.1726 64.118 66.6476 61.3433C69.4954 61.6691 72.5193 61.8991 75.756 61.9921C75.7463 63.1263 76.1445 66.3462 80.8169 67.6369C85.3705 68.8927 85.5098 71.1751 86.0033 70.9897ZM25.7228 4.03863C26.4369 4.0317 26.8191 5.22214 26.5097 7.46482C26.2897 9.05056 25.3156 10.4915 24.5352 11.4712C24.3926 10.7354 24.3107 8.85185 24.2942 7.26521C24.2755 5.24351 25.0486 4.04585 25.7228 4.03863ZM9.86007 60.7698C7.25331 61.0341 6.05195 59.0943 6.03299 57.1449C6.00741 54.7363 9.15045 51.4513 14.3589 51.3998C15.3264 51.3881 16.2286 51.3722 17.1323 51.3646C15.3032 58.5416 12.2089 60.5328 9.86007 60.7698Z" fill="var(--fill-0, white)"/>
<path d="M100.621 56.1254C99.9813 56.9362 105.012 61.3695 110.679 56.1254C110.679 56.1254 105.438 50.0312 100.621 56.1254Z" fill="var(--fill-0, white)"/>
<path d="M39.5131 43.7848C38.5558 43.7848 37.5645 43.32 37.349 41.5262C37.1335 39.7312 38.3515 26.7713 38.0632 24.3814C37.7752 21.9873 35.2969 20.0749 33.3627 20.3073C33.3627 20.3073 32.2035 20.3657 31.2056 21.6377C29.7981 23.4327 30.6648 34.909 31.0726 38.2855C31.4797 41.6617 32.5315 46.8681 36.8528 46.8681C40.778 46.8681 42.8996 42.7916 43.3324 41.8589C44.141 44.2015 45.6006 45.6328 48.2161 45.6328C51.1274 45.6328 53.68 43.1171 55.2235 40.6609C55.7062 43.2318 56.8654 45.5609 59.5989 45.5609C62.9878 45.5609 65.1775 42.9671 65.9666 41.849C66.7704 43.7611 68.2549 45.4275 70.9062 45.4275C76.1224 45.4275 78.4481 37.9718 78.4481 37.9718C78.4481 37.9718 77.0334 45.7015 82.7546 46.116C85.1227 46.2898 86.9447 45.2727 88.27 44.0236C88.7061 46.6733 89.856 48.0564 91.2051 48.2865C92.6713 48.5342 92.8982 47.8198 92.8982 47.8198C92.8982 47.8198 96.2242 39.2254 100.753 32.3342C105.185 25.5905 106.934 25.5821 107.215 26.6382C107.522 27.782 102.969 33.248 101.672 40.8988C100.374 48.5487 102.988 50.2874 105.293 50.6785C107.597 51.0699 111.326 49.1156 113.422 46.2898C115.516 43.4669 115.109 42.6953 114.549 42.4945C113.991 42.2903 114.097 43.286 112.814 45.1087C111.516 46.9533 109.64 48.5598 108.017 48.2838C106.394 48.0068 106.612 45.1324 109.89 37.8733C113.17 30.6145 114.567 23.9692 109.223 23.0606C103.515 22.0927 96.5053 36.4086 96.5053 36.4086C96.5053 36.4086 97.2549 33.7191 99.1777 30.0123C101.126 26.2535 101.251 22.8474 99.215 21.1172C97.3371 19.5224 94.6081 19.321 94.1802 19.6254C93.9033 19.8244 93.8191 23.6628 91.4067 30.2607C89.3269 35.945 88.1842 39.1878 88.1204 41.976C87.4322 42.7233 86.5495 43.3564 85.5702 43.2857C83.2915 43.1195 83.6385 39.8408 85.0246 35.4105C86.4135 30.9845 89.1773 22.9778 87.8983 20.8062C86.6175 18.6364 81.9776 17.9782 81.8067 18.1254C81.6381 18.273 81.0853 20.7354 81.0853 20.7354C81.0853 20.7354 80.6429 18.0414 77.5158 17.8114C74.3899 17.5844 70.8508 20.0984 68.0638 25.49C65.2741 30.8833 65.253 34.8244 65.1104 36.7877C65.0544 37.5731 65.1218 39.1125 65.5621 40.6781C64.5617 41.7999 62.8151 42.7606 62.1497 42.7606C61.1942 42.7606 60.7326 42.1235 60.7326 40.3162C60.7326 38.5089 63.4964 25.7892 63.4964 23.3809C63.4964 20.9727 61.264 18.774 59.3184 18.774C59.3184 18.774 58.1565 18.6924 57.0138 19.8361C55.4047 21.4475 54.8901 32.9472 54.8901 36.3475C54.8901 36.9466 54.9015 37.6198 54.9457 38.3246C54.1004 39.9742 52.6297 42.2939 51.004 42.3788C49.66 42.4484 49.3648 40.4613 49.2754 38.7299C49.1842 36.996 49.0412 27.1483 50.227 18.1233C51.1566 11.068 52.5686 6.29756 52.5686 6.29756C52.0931 5.71619 51.5291 4.90992 49.3184 4.90992C46.2732 4.90992 44.7558 7.75475 43.3456 16.7429C41.8698 26.1409 42.2171 31.9097 42.4419 36.2469C42.5255 37.8423 42.685 39.3046 42.9733 40.5763C42.3712 42.0718 40.5246 43.7848 39.5131 43.7848ZM71.59 38.4845C71.6793 37.2636 72.1852 33.2525 73.8527 27.8847C75.5227 22.5163 76.6308 20.9579 78.0614 21.0642C79.4921 21.1669 79.7991 23.0413 79.5719 26.1695C79.1481 31.9819 74.9018 42.7747 72.9415 42.6317C71.0239 42.4942 71.5012 39.7026 71.59 38.4845Z" fill="var(--fill-0, white)"/>
<path d="M113.849 39.5882H113.781L113.776 39.8297L114.591 39.8411V39.5933H114.224C114.289 39.5692 114.331 39.5039 114.331 39.3823V37.9224L114.453 37.9296C114.938 37.9528 115.092 38.075 115.092 38.3349C115.092 38.5947 114.882 38.6862 114.561 38.7353L114.568 38.9277C114.907 38.9277 115.029 38.965 115.076 39.3332C115.13 39.6915 115.217 39.8718 115.5 39.8718C115.65 39.8718 115.832 39.8062 115.948 39.6421L115.779 39.4735C115.711 39.5765 115.645 39.6075 115.573 39.6075C115.451 39.6075 115.416 39.5226 115.373 39.2745C115.331 38.9819 115.228 38.8434 115.003 38.7943C115.27 38.6982 115.42 38.5411 115.42 38.2807C115.42 37.9224 115.167 37.693 114.561 37.6888L113.781 37.6815L113.776 37.9155H113.914C114.006 37.9155 114.022 37.942 114.022 38.0564V39.3829C114.022 39.5352 113.975 39.5882 113.849 39.5882Z" fill="var(--fill-0, white)"/>
<path d="M114.701 40.7383C115.772 40.7383 116.612 39.8715 116.612 38.8012C116.612 37.7309 115.772 36.8702 114.701 36.8702C113.63 36.8702 112.783 37.7309 112.783 38.8012C112.783 39.8715 113.617 40.7383 114.701 40.7383ZM114.701 37.0695C115.65 37.0695 116.407 37.8496 116.407 38.8009C116.407 39.7523 115.65 40.5321 114.701 40.5321C113.752 40.5321 112.989 39.752 112.989 38.8009C112.989 37.8499 113.743 37.0695 114.701 37.0695Z" fill="var(--fill-0, white)"/>
</g>
</svg>
