<svg width="345" height="109" viewBox="0 0 345 109" fill="none" xmlns="http://www.w3.org/2000/svg">
<path d="M127.231 69.153C108.02 77.955 110.56 108.114 112.789 108.952L112.793 108.951C115.061 109.805 115.697 99.2964 136.622 93.514C158.094 87.5707 159.923 72.7437 159.879 67.5213C174.752 67.0929 188.648 66.0338 201.735 64.5337C185.537 77.3103 189.724 106.192 192.071 106.927C194.633 107.725 194.698 96.0607 217.492 88.3789C240.812 80.5142 242.007 64.0721 241.644 58.2563C276.235 51.3496 304.791 41.9737 331.266 34.6053C334.698 33.7527 338.323 32.846 342.133 31.877C349.453 30.0206 356.102 28.4236 362.195 27.0428H362.208C366.479 26.1915 370.041 25.4124 373 24.7012L370.433 12.7994C336.432 18.0995 305.425 25.9331 288.19 24.1868C259.045 21.2284 260.724 1.38975 258.225 0.14897C255.74 -1.08211 237.939 5.23967 237.777 21.9965C237.679 31.8894 242.524 38.9543 248.916 42.8845C232.32 46.5709 214.347 49.8343 194.929 52.0206C195.048 45.6669 192.949 28.5871 168.215 21.2076C143.787 13.9154 143.28 1.56167 140.601 2.50993C137.954 3.42631 134.262 38.8045 156.615 49.5945C161.082 51.753 165.354 53.2087 169.348 54.168C159.983 54.6837 150.34 54.9333 140.373 54.8349C133.939 54.7725 127.965 54.4703 122.421 54.0086C122.433 48.8514 120.474 36.0443 101.716 30.4435C82.7833 24.7996 82.3961 15.2186 80.3175 15.9533C78.5626 16.5675 76.2296 36.6876 86.4204 47.7395C68.0592 42.775 59.3426 37.737 55.0679 41.9335C47.5655 49.3019 80.2954 65.5513 131.139 67.5462C129.857 68.0204 128.556 68.5389 127.231 69.153Z" fill="#DF8D40" fill-opacity="0.25"/>
<path d="M47.4778 41.3467C49.099 45.8015 20.7885 57.8886 3.62836 26.8728C3.62836 26.8728 35.246 7.84745 47.4778 41.3467Z" fill="#DF8D40" fill-opacity="0.5"/>
</svg>
