<svg width="336" height="109" viewBox="0 0 336 109" fill="none" xmlns="http://www.w3.org/2000/svg">
<path d="M208.769 69.153C227.98 77.955 225.44 108.114 223.211 108.952L223.207 108.951C220.939 109.805 220.303 99.2964 199.378 93.514C177.906 87.5707 176.077 72.7437 176.121 67.5213C161.248 67.0929 147.352 66.0338 134.265 64.5337C150.463 77.3103 146.276 106.192 143.929 106.927C141.367 107.725 141.302 96.0607 118.508 88.3789C95.1876 80.5142 93.9927 64.0721 94.3564 58.2563C59.7651 51.3496 31.209 41.9737 4.73414 34.6053C1.3017 33.7527 -2.32297 32.846 -6.13295 31.877C-13.4528 30.0206 -20.102 28.4236 -26.1952 27.0428H-26.2076C-30.4795 26.1915 -34.0405 25.4124 -37 24.7012L-34.4332 12.7994C-0.431915 18.0995 30.5746 25.9331 47.8097 24.1868C76.955 21.2284 75.2761 1.38975 77.7751 0.14897C80.2602 -1.08211 98.0613 5.23967 98.2231 21.9965C98.3213 31.8894 93.4755 38.9543 87.0836 42.8845C103.68 46.5709 121.653 49.8343 141.071 52.0206C140.952 45.6669 143.051 28.5871 167.785 21.2076C192.213 13.9154 192.72 1.56167 195.399 2.50993C198.046 3.42631 201.738 38.8045 179.385 49.5945C174.918 51.753 170.646 53.2087 166.652 54.168C176.017 54.6837 185.66 54.9333 195.627 54.8349C202.061 54.7725 208.035 54.4703 213.579 54.0086C213.567 48.8514 215.526 36.0443 234.284 30.4435C253.217 24.7996 253.604 15.2186 255.682 15.9533C257.437 16.5675 259.77 36.6876 249.58 47.7395C267.941 42.775 276.657 37.737 280.932 41.9335C288.434 49.3019 255.705 65.5513 204.861 67.5462C206.143 68.0204 207.444 68.5389 208.769 69.153Z" fill="#DF8D40" fill-opacity="0.25"/>
<path d="M288.522 41.3467C286.901 45.8015 315.212 57.8886 332.372 26.8728C332.372 26.8728 300.754 7.84745 288.522 41.3467Z" fill="#DF8D40" fill-opacity="0.5"/>
</svg>
